# xmcd CD database file
#
# Track frame offsets:
#	150
#	20625
#	40662
#	57462
#	74037
#	88672
#	104722
#	120997
#	140872
#	154672
#	172212
#	185497
#	214025
#
# Disc length: 3031 seconds
#
# Revision: 1
# Processed by: cddbd v1.4PL0 Copyright (c) Steve Scherf et al.
# Submitted via: CDex 1.50Beta7
#
DISCID=c70bd50d
DTITLE=Rusty Nugget - Nugget
DYEAR=2000
DGENRE=Country
TTITLE0=Two-Faced Love
TTITLE1=Tonight I'll Be Stayin' Here With You
TTITLE2=Miles and Miles Of Texas
TTITLE3=Railroad Lady
TTITLE4=I Can't Let Go
TTITLE5=Gettin' Up
TTITLE6=Tear MayStillhouse Down
TTITLE7=The Last Time
TTITLE8=Raining In My Heart
TTITLE9=I'm Left, You're Right, She's Gone
TTITLE10=How Mountain Girls Can Love
TTITLE11=Knockin' On Heaven's Door
TTITLE12=I Saw Her Standing There
EXTD=YEAR: 2000
EXTT0=
EXTT1=
EXTT2=
EXTT3=
EXTT4=
EXTT5=
EXTT6=
EXTT7=
EXTT8=
EXTT9=
EXTT10=
EXTT11=
EXTT12=
PLAYORDER=
